<svg xmlns="http://www.w3.org/2000/svg" fill="none" viewBox="0 0 38 40"><path d="M11.1 12.7 11 27.4l-3.2 1.8a8.1 8.1 0 0 1-7.8.2l.2-18.8V8.5a8.6 8.6 0 0 1 13-7.3l1.1.7a8.8 8.8 0 0 0-3.1 6.6V12z" fill="#6C52EE"/><path d="M11.1 12.7 11 27.4l-3.2 1.8a8.1 8.1 0 0 1-7.8.2l.2-18.8V8.5a8.6 8.6 0 0 1 13-7.3l1.1.7a8.8 8.8 0 0 0-3.1 6.6V12z" fill="url(#a)"/><path d="M11.1 12.7 11 27.4l-3.2 1.8a8.1 8.1 0 0 1-7.8.2l.2-18.8V8.5a8.6 8.6 0 0 1 13-7.3l1.1.7a8.8 8.8 0 0 0-3.1 6.6V12z" fill="url(#b)"/><path d="m31.6 28.3-17 9.6-.6.3-1.2.7A8.6 8.6 0 0 1 0 31.3v-1.2a8.6 8.6 0 0 0 8.1-.3l2.9-1.6.6-.4 12.8-7.2 3.3 2a8.1 8.1 0 0 1 4 5.7" fill="#6C52EE"/><path d="m31.6 28.3-17 9.6-.6.3-1.2.7A8.6 8.6 0 0 1 0 31.3v-1.2a8.6 8.6 0 0 0 8.1-.3l2.9-1.6.6-.4 12.8-7.2 3.3 2a8.1 8.1 0 0 1 4 5.7" fill="url(#c)"/><path d="m31.6 28.3-17 9.6-.6.3-1.2.7A8.6 8.6 0 0 1 0 31.3v-1.2a8.6 8.6 0 0 0 8.1-.3l2.9-1.6.6-.4 12.8-7.2 3.3 2a8.1 8.1 0 0 1 4 5.7" fill="url(#d)"/><path d="m32.7 27.7-.5.2a8.8 8.8 0 0 0-4.2-6l-3-1.7-.6-.4-12.6-7.4V8.5A8.1 8.1 0 0 1 15 2.2l16.9 10 .6.4.4.2a8.6 8.6 0 0 1-.1 14.9" fill="#6C52EE"/><path d="m32.7 27.7-.5.2a8.8 8.8 0 0 0-4.2-6l-3-1.7-.6-.4-12.6-7.4V8.5A8.1 8.1 0 0 1 15 2.2l16.9 10 .6.4.4.2a8.6 8.6 0 0 1-.1 14.9" fill="url(#e)"/><path d="m32.7 27.7-.5.2a8.8 8.8 0 0 0-4.2-6l-3-1.7-.6-.4-12.6-7.4V8.5A8.1 8.1 0 0 1 15 2.2l16.9 10 .6.4.4.2a8.6 8.6 0 0 1-.1 14.9" fill="url(#f)"/><defs><radialGradient id="a" cx="0" cy="0" r="1" gradientUnits="userSpaceOnUse" gradientTransform="matrix(11.68652 58.10205 -23.18182 4.66274 -2.4 -27.8)"><stop offset=".3" stop-color="#619BFF"/><stop offset=".7" stop-color="#CDDBF8" stop-opacity="0"/></radialGradient><radialGradient id="c" cx="0" cy="0" r="1" gradientUnits="userSpaceOnUse" gradientTransform="matrix(25.86057 37.20849 -35.98038 25.00701 -5.2 2.7)"><stop offset=".3" stop-color="#619BFF"/><stop offset=".7" stop-color="#CDDBF8" stop-opacity="0"/></radialGradient><radialGradient id="e" cx="0" cy="0" r="1" gradientUnits="userSpaceOnUse" gradientTransform="matrix(20.63192 49.4164 -36.26114 15.13945 7.6 -21.5)"><stop offset=".3" stop-color="#619BFF"/><stop offset=".7" stop-color="#CDDBF8" stop-opacity="0"/></radialGradient><linearGradient id="b" x1="11.3" y1="-6" x2="5.6" y2="-5" gradientUnits="userSpaceOnUse"><stop stop-color="#9E61FF"/><stop offset=".8" stop-color="#8E61FF" stop-opacity="0"/></linearGradient><linearGradient id="d" x1="24.9" y1="16.7" x2="15.8" y2="22.6" gradientUnits="userSpaceOnUse"><stop stop-color="#9E61FF"/><stop offset=".8" stop-color="#8E61FF" stop-opacity="0"/></linearGradient><linearGradient id="f" x1="31.7" y1="-2.9" x2="22.7" y2=".6" gradientUnits="userSpaceOnUse"><stop stop-color="#9E61FF"/><stop offset=".8" stop-color="#8E61FF" stop-opacity="0"/></linearGradient></defs></svg>